<svg width="52" height="43" viewBox="0 0 52 43" fill="none" xmlns="http://www.w3.org/2000/svg">
	<path d="M14.9 10H8.60001C3.80001 10 0 13.8 0 18.5C0 23.2 3.80001 27 8.60001 27H14.9V10Z" fill="#C2212E" />
	<path d="M36.0001 34L17.8 27V9.70001L36.0001 2V34Z" stroke="#C9CBD1" stroke-width="2" stroke-miterlimit="100" />
	<path d="M39 8.70001L48.2 4L49 6.29999L39.8 11L39 8.70001Z" fill="#C2212E" />
	<path d="M39 25.3L48.2 29L49 26.7L39.8 23L39 25.3Z" fill="#C2212E" />
	<path d="M40 16H52V18H40V16Z" fill="#C2212E" />
	<path d="M7 29H13V38C13 39.7 11.7 41 10 41C8.3 41 7 39.7 7 38V29Z" stroke="#C9CBD1" stroke-width="4" stroke-miterlimit="100" />
</svg>
