<svg width="35" height="35" viewBox="0 0 35 35" fill="none" xmlns="http://www.w3.org/2000/svg">
	<path d="M17.5 0C27.2 0 35 7.8 35 17.5C35 27.2 27.2 35 17.5 35C7.8 35 0 27.2 0 17.5C0 7.8 7.8 0 17.5 0Z" fill="#CC3743" />
	<path fill-rule="evenodd" clip-rule="evenodd" d="M15.1 14.7002L20.5 18.3002L21.2 17.9002L15.1 14.7002Z" fill="black" fill-opacity="0.5" />
	<path fill-rule="evenodd" clip-rule="evenodd" d="M17.5 10C17.5 10 22.3 10 25.5 10.2C26 10.3 27 10.3 27.9 11.2C28.5 11.9 28.8 13.5 28.8 13.5C28.8 13.5 29 15.3 29 17.1V18.9C29 20.7 28.8 22.5 28.8 22.5C28.8 22.5 28.5 24.1 27.9 24.8C27 25.7 26 25.7 25.5 25.8C22.3 26 17.5 26 17.5 26C17.5 26 11.5 26 9.69995 25.8C9.19995 25.7 7.99998 25.7 7.09998 24.8C6.49998 24.1 6.19995 22.5 6.19995 22.5C6.19995 22.5 6 20.7 6 18.9V17.1C6 15.3 6.19995 13.5 6.19995 13.5C6.19995 13.5 6.49998 11.9 7.09998 11.2C7.99998 10.3 9 10.3 9.5 10.2C12.7 10 17.5 10 17.5 10ZM15.1 21.2L21.2 17.9L15.1 14.7V21.2Z" fill="white" />
</svg>
